<svg xmlns="http://www.w3.org/2000/svg" viewBox="0 0 12.273 12.197">
  <g id="ic_delete" transform="translate(0 0)">
    <path id="Shape" d="M10.527,12.2H1.883a.964.964,0,0,1-.963-.963V2.726H.489a.489.489,0,0,1,0-.978H3.022V.963A.964.964,0,0,1,3.985,0h4.3A.964.964,0,0,1,9.25.963v.785h2.521a.517.517,0,0,1,.359.145.481.481,0,0,1,.143.344.5.5,0,0,1-.5.489H11.49v8.509A.964.964,0,0,1,10.527,12.2ZM1.883,2.726v8.508h8.643V2.726H1.883Zm2.1-1.76v.791h4.3V.965ZM8.766,9.909a.492.492,0,0,1-.492-.492V4.856a.492.492,0,0,1,.983,0V9.417A.492.492,0,0,1,8.766,9.909Zm-2.636,0a.492.492,0,0,1-.492-.492V4.856a.492.492,0,0,1,.983,0V9.417A.492.492,0,0,1,6.13,9.909Zm-2.663,0a.492.492,0,0,1-.492-.492V4.856a.492.492,0,0,1,.983,0V9.417A.492.492,0,0,1,3.468,9.909Z" transform="translate(0 0)"/>
  </g>
</svg>
