<svg xmlns="http://www.w3.org/2000/svg" viewBox="0 0 14 14">
  <defs>
    <style>
      .cls-1 {
        fill: none;
      }

      .cls-2 {
        fill: #fff;
      }
    </style>
  </defs>
  <g id="ic_identity" transform="translate(0)">
    <rect id="Rectangle_43_Copy_9" data-name="Rectangle 43 Copy 9" class="cls-1" width="14" height="14"/>
    <g id="solution" transform="translate(0.868 0.875)">
      <path id="Shape" class="cls-2" d="M.493,5.863A.5.5,0,0,1,.4,5.854a.492.492,0,0,1-.392-.575,2.649,2.649,0,0,1,1.619-1.97,1.8,1.8,0,1,1,1.993,0,2.648,2.648,0,0,1,1.619,1.97.5.5,0,0,1-.391.575.539.539,0,0,1-.091.008.493.493,0,0,1-.482-.4,1.679,1.679,0,0,0-3.3,0A.492.492,0,0,1,.493,5.863ZM2.624.984a.82.82,0,1,0,.821.82A.821.821,0,0,0,2.624.984Z" transform="translate(7.001 6.381)"/>
      <path id="Shape-2" data-name="Shape" class="cls-2" d="M11.279,0H.984A.986.986,0,0,0,0,.984V11.266a.986.986,0,0,0,.984.984H4.771a.492.492,0,0,0,0-.984H.984V.984H11.279V5.633a.492.492,0,0,0,.984,0V.984A.986.986,0,0,0,11.279,0Z"/>
      <path id="Shape-3" data-name="Shape" class="cls-2" d="M3.008,6.234H.492a.492.492,0,0,1,0-.984H3.008a.492.492,0,1,1,0,.984Zm0-2.625H.492a.492.492,0,0,1,0-.984H3.008a.492.492,0,1,1,0,.984ZM4.758.984H.492A.492.492,0,0,1,.492,0H4.758a.492.492,0,1,1,0,.984Z" transform="translate(1.764 2.625)"/>
    </g>
  </g>
</svg>
