<svg xmlns="http://www.w3.org/2000/svg" viewBox="0 0 14 14">
  <defs>
    <style>
      .cls-1 {
        fill: none;
      }

      .cls-2 {
        fill: #fff;
      }
    </style>
  </defs>
  <g id="ic_export" transform="translate(0)">
    <rect id="Rectangle_48_Copy_20" data-name="Rectangle 48 Copy 20" class="cls-1" width="14" height="14"/>
    <g id="export" transform="translate(1.308 1.511)">
      <path id="Shape" class="cls-2" d="M8.985,10.969H1.232A1.232,1.232,0,0,1,0,9.739V1.711A1.233,1.233,0,0,1,1.232.48h3.48a.49.49,0,0,1,0,.979H1.231a.255.255,0,0,0-.255.254V9.74a.255.255,0,0,0,.255.254H8.982a.255.255,0,0,0,.255-.254V6.952a.49.49,0,0,1,.98,0V9.737A1.233,1.233,0,0,1,8.985,10.969ZM4.354,6.007A.383.383,0,0,1,4.285,6a.49.49,0,0,1-.414-.553,4.96,4.96,0,0,1,.746-1.86,4.114,4.114,0,0,1,3.2-1.856V.489A.488.488,0,0,1,8.306,0a.482.482,0,0,1,.336.135l2.6,2.473a.494.494,0,0,1-.023.731L8.617,5.5a.489.489,0,0,1-.312.112A.47.47,0,0,1,8.1,5.57a.491.491,0,0,1-.283-.443V3.615a.49.49,0,0,1,.979,0v.468L10.17,2.937,8.8,1.63v.576a.49.49,0,0,1-.489.489H8.258A3.2,3.2,0,0,0,5.447,4.109a4.117,4.117,0,0,0-.608,1.483A.493.493,0,0,1,4.354,6.007Z" transform="translate(0 0)"/>
    </g>
  </g>
</svg>
